# xmcd CD database file
# 
# Track frame offsets:
# 	150
# 	21198
# 	43955
# 	48924
# 	66261
# 	90632
# 	113313
# 	139733
# 	155353
# 	178946
# 	196727
# 	214323
# 	231757
# 	248046
# 
# Disc length: 3507 seconds
# 
# Submitted via: Nero 6, 3, 1, 6
# 
# Revision: 0
# Processed by: cddbd v1.5.1PL0 Copyright (c) Steve Scherf et al.
#
DISCID=bd0db10e
DTITLE=Gnola Blues Band - Walkin'Through The Shadows OfThe Blues
DYEAR=1900
DGENRE=
TTITLE0=Blues Fallin' Down
TTITLE1=Walkin' Through The Shadows 
TTITLE2=Foreigner Blues
TTITLE3=Midnight Cryin'
TTITLE4=Muddy,Slide Tribute
TTITLE5=Perissa Beach
TTITLE6=Tonight ( I Feel Like Goin' To Cry )
TTITLE7=I'm Alone
TTITLE8=Tuff Times
TTITLE9=Tulane Avenue Shuffle
TTITLE10=Mean In Love
TTITLE11=Baby,Baby
TTITLE12=Can't Help Myself
TTITLE13=Roger Boogie
EXTD=
EXTT0=
EXTT1=
EXTT2=
EXTT3=
EXTT4=
EXTT5=
EXTT6=
EXTT7=
EXTT8=
EXTT9=
EXTT10=
EXTT11=
EXTT12=
EXTT13=
PLAYORDER=
